<?xml version="1.0" encoding="UTF-8"?>
<svg width="19px" height="28px" viewBox="0 0 19 28" version="1.1" xmlns="http://www.w3.org/2000/svg" xmlns:xlink="http://www.w3.org/1999/xlink">
    <g id="Page-1" stroke="none" stroke-width="1" fill="none" fill-rule="evenodd">
        <g id="PR_Dev_2" transform="translate(-895.000000, -2965.000000)" fill="#272727">
            <g id="Group-12" transform="translate(0.000000, 2820.000000)">
                <g id="Group-9" transform="translate(140.000000, 40.000000)">
                    <g id="Car" transform="translate(755.000000, 105.000000)">
                        <g id="svg10786">
                            <g id="layer1" transform="translate(0.000000, 0.046526)">
                                <path d="M9.20840736,0.00865852888 C4.15997341,0.00865852888 0.0323374526,4.14614057 0.0323374526,9.24894313 C0.825063055,15.3155542 4.97472302,19.0583378 8.5286782,23.7445724 C8.85956276,24.1689499 9.59202308,24.1689499 9.92232927,23.7445724 C10.28972,23.2465426 10.7672077,22.6616888 11.2817876,22.0271099 C12.5212937,22.1511108 13.6321568,22.3459581 14.4764645,22.6453995 C15.1237437,22.8750076 15.6273117,23.134934 15.9043006,23.3666465 C16.1812973,23.5992162 16.1760766,23.7378696 16.1760766,23.7788655 C16.1760766,23.8201731 16.1760766,23.9590603 15.9043006,24.1910845 C15.6273117,24.4235764 15.1237437,24.6829572 14.4764645,24.9124873 C13.1819061,25.3716256 11.3026472,25.7023985 9.20840736,25.7023985 C7.11416757,25.7023985 5.20130198,25.3716256 3.90674354,24.9124873 C3.25946433,24.6829572 2.75647477,24.4239661 2.47948582,24.1910845 C2.20191078,23.9590603 2.17351708,23.8206408 2.17351708,23.7788655 C2.17351708,23.7375579 2.20251228,23.5992162 2.47948582,23.3666465 C2.75647477,23.1347002 3.25946433,22.8750076 3.90674354,22.6453995 C4.25733095,22.521009 4.66586248,22.3648193 5.09641802,22.2675516 L3.90674354,20.7904528 C3.71493569,20.8481276 3.50805958,20.8981644 3.32899882,20.9622302 C2.54902031,21.2389914 1.87913872,21.5555794 1.35761075,21.9926609 C0.836653423,22.4300542 0.406105593,23.0479541 0.406105593,23.7788655 C0.406105593,24.5104783 0.836653423,25.0936174 1.35761075,25.5308549 C1.87913872,25.9680923 2.54902031,26.3185058 3.32899882,26.5956567 C4.88954192,27.1492569 6.94611881,27.4887589 9.20840736,27.4887589 C12.0623445,27.4040393 14.80155,27.0507421 17.0255973,25.5308549 C18.2865491,24.2669191 17.952765,23.1851267 17.0255973,21.9926609 C16.5040616,21.5555794 15.8683728,21.2389914 15.0883943,20.9622302 C14.3727373,20.7082272 13.5377065,20.4881277 12.6412459,20.3439406 C13.4212321,19.37212 14.2209135,18.3412996 14.9864021,17.2524927 C16.7839501,14.6956279 18.3508706,11.9387717 18.3508706,9.24894313 C18.3508706,4.14614057 14.2574197,0.00865852888 9.20840736,0.00865852888 L9.20840736,0.00865852888 Z M9.20840736,4.68021714 C6.7676364,4.68021714 4.75626426,6.67867283 4.75626426,9.14582991 C4.75626426,11.6129091 6.7676364,13.6457124 9.20840736,13.6457124 C11.6497567,13.6457124 13.6269438,11.6128311 13.6269438,9.14582991 C13.6269438,6.67867283 11.6497567,4.68021714 9.20840736,4.68021714 Z M9.20840736,6.46636717 C10.6912958,6.46636717 11.8595323,7.64737589 11.8595323,9.14582991 C11.8595323,10.6443619 10.6912958,11.8595078 9.20840736,11.8595078 C7.72609732,11.8595078 6.52367575,10.6443619 6.52367575,9.14582991 C6.52367575,7.64737589 7.72609732,6.46636717 9.20840736,6.46636717 Z" id="rect6641-3-4"></path>
                            </g>
                        </g>
                    </g>
                </g>
            </g>
        </g>
    </g>
</svg>