<?xml version="1.0" encoding="UTF-8"?>
<svg width="25px" height="24px" viewBox="0 0 25 24" version="1.1" xmlns="http://www.w3.org/2000/svg" xmlns:xlink="http://www.w3.org/1999/xlink">
    <g id="Page-1" stroke="none" stroke-width="1" fill="none" fill-rule="evenodd">
        <g id="PR_Dev_2" transform="translate(-892.000000, -3075.000000)">
            <g id="Group-12" transform="translate(0.000000, 2820.000000)">
                <g id="Group-9" transform="translate(140.000000, 40.000000)">
                    <g id="Mail,-Letter,-Draft,-Inbox,-Email" transform="translate(750.000000, 214.000000)">
                        <g id="Group">
                            <path d="M26.1429102,9.612469 C26.1429102,8.74734679 25.6970898,7.99637265 25.025387,7.56981934 L14.2662539,1.20155863 L3.50712074,7.56981934 C2.83541796,7.99637265 2.37770898,8.74734679 2.37770898,9.612469 L2.37770898,21.6280553 C2.37770898,22.9557775 3.44173375,24.0311725 4.75541796,24.0311725 L23.7770898,24.0311725 C25.090774,24.0311725 26.1547988,22.9557775 26.1547988,21.6280553 L26.1429102,9.612469 Z M14.2662539,15.6202621 L4.44631579,9.41421183 L14.2662539,3.60467588 L24.086192,9.41421183 L14.2662539,15.6202621 Z" id="Shape" fill="#272727" fill-rule="nonzero"></path>
                            <polygon id="Shape" points="0 0 28.5325077 0 28.5325077 28.837407 0 28.837407"></polygon>
                        </g>
                    </g>
                </g>
            </g>
        </g>
    </g>
</svg>