<svg width="60" height="60" viewBox="0 0 60 60" fill="none" xmlns="http://www.w3.org/2000/svg">
<g clip-path="url(#clip0_1422_8808)">
<path d="M55 55.1667H5C2.16667 55.1667 0 53 0 50.1667V5C0 2.16667 2.16667 0 5 0H55C57.8333 0 60 2.16667 60 5V50.1667C60 52.8333 57.8333 55.1667 55 55.1667Z" fill="#FF8F00"/>
<path d="M55 60H5C2.16667 60 0 57.8333 0 55V13.3333C0 10.5 2.16667 8.33331 5 8.33331H55C57.8333 8.33331 60 10.5 60 13.3333V55C60 57.8333 57.8333 60 55 60Z" fill="#DD2C00"/>
<path d="M15.0001 15C14.116 15 13.2682 15.3512 12.6431 15.9763C12.0179 16.6014 11.6667 17.4493 11.6667 18.3333C11.6667 19.2174 12.0179 20.0652 12.6431 20.6904C13.2682 21.3155 14.116 21.6667 15.0001 21.6667C15.8841 21.6667 16.732 21.3155 17.3571 20.6904C17.9822 20.0652 18.3334 19.2174 18.3334 18.3333C18.3334 17.4493 17.9822 16.6014 17.3571 15.9763C16.732 15.3512 15.8841 15 15.0001 15ZM45.0001 15C44.116 15 43.2682 15.3512 42.6431 15.9763C42.0179 16.6014 41.6667 17.4493 41.6667 18.3333C41.6667 19.2174 42.0179 20.0652 42.6431 20.6904C43.2682 21.3155 44.116 21.6667 45.0001 21.6667C45.8841 21.6667 46.732 21.3155 47.3571 20.6904C47.9822 20.0652 48.3334 19.2174 48.3334 18.3333C48.3334 17.4493 47.9822 16.6014 47.3571 15.9763C46.732 15.3512 45.8841 15 45.0001 15Z" fill="#B71C1C"/>
<path d="M29.9999 35C20.8333 35 13.3333 27.5 13.3333 18.3334C13.3333 17.3334 13.9999 16.6667 14.9999 16.6667C15.9999 16.6667 16.6666 17.3334 16.6666 18.3334C16.6666 25.6667 22.6666 31.6667 29.9999 31.6667C37.3333 31.6667 43.3333 25.6667 43.3333 18.3334C43.3333 17.3334 43.9999 16.6667 44.9999 16.6667C45.9999 16.6667 46.6666 17.3334 46.6666 18.3334C46.6666 27.5 39.1666 35 29.9999 35Z" fill="white"/>
</g>
<defs>
<clipPath id="clip0_1422_8808">
<rect width="60" height="60" fill="white"/>
</clipPath>
</defs>
</svg>
