<svg width="60" height="60" viewBox="0 0 60 60" fill="none" xmlns="http://www.w3.org/2000/svg">
<g clip-path="url(#clip0_1422_8782)">
<path d="M54.1007 0.00592041H5.96341C2.71467 0.00592041 0.0810547 2.63954 0.0810547 5.88827V54.0255C0.0810547 57.2743 2.71467 59.9079 5.96341 59.9079H54.1007C57.3494 59.9079 59.983 57.2743 59.983 54.0255V5.88827C59.983 2.63954 57.3494 0.00592041 54.1007 0.00592041Z" fill="#4676ED"/>
<path d="M40.6449 41.4474L41.9109 33.2186H33.9776V27.8594C33.9776 25.6228 35.0747 23.4285 38.6194 23.4285H42.2063V16.4236C42.2063 16.4236 38.957 15.875 35.8343 15.875C29.3357 15.875 25.1159 19.7995 25.1159 26.9311V33.2186H17.8577V41.4474H25.1159V61.365C26.5506 61.5761 28.0697 61.7026 29.5467 61.7026C31.0658 61.7026 32.5428 61.5761 33.9776 61.365V41.4474H40.6449Z" fill="white"/>
</g>
<defs>
<clipPath id="clip0_1422_8782">
<rect width="60" height="60" rx="15" fill="white"/>
</clipPath>
</defs>
</svg>
