<svg width="62" height="62" viewBox="0 0 62 62" fill="none" xmlns="http://www.w3.org/2000/svg">
<path d="M60.9602 11.3951C60.9349 11.3102 60.9095 11.2254 60.876 11.1406C40.9489 11.149 21.0301 11.1406 1.11136 11.149C1.06089 11.2084 1.02725 11.2678 1.01883 11.3442C1.01883 26.9273 1.01883 42.5018 1.01025 58.085C1.13643 58.9162 1.59066 59.6712 2.19646 60.2396C2.2217 60.2481 2.28058 60.2563 2.30581 60.265C2.61704 60.5957 3.06286 60.7571 3.48344 60.9097C3.79467 60.8928 4.09749 61.0285 4.40872 60.9945H29.1389C29.3745 60.986 29.6182 61.0285 29.8453 60.9352C29.8539 60.9015 29.8622 60.8419 29.8706 60.808C29.8792 60.7656 29.8874 60.6723 29.8959 60.6214C30.4259 57.6355 30.9389 54.641 31.5026 51.6551L31.5531 51.2734C29.2652 51.2647 26.9687 51.2734 24.6809 51.2647C24.1256 51.2478 23.5538 51.2647 22.9985 51.1968C22.0481 51.1544 21.0892 51.1883 20.1387 51.0951C18.961 51.0951 17.7918 50.9847 16.6142 50.9847C15.6889 50.8914 14.7552 50.9254 13.8215 50.883C13.216 50.8068 12.5934 50.8406 11.9795 50.815C10.9785 50.7048 9.96074 50.7813 8.95975 50.6709C7.89989 50.6796 6.84002 50.5861 5.78016 50.5605C5.78857 50.5521 5.79698 50.5181 5.79698 50.5096C6.15027 50.5181 6.49515 50.4928 6.84843 50.4843C7.63072 50.3824 8.42141 50.4504 9.20369 50.34C10.0196 50.34 10.8271 50.2298 11.6431 50.2298C12.3665 50.1279 13.0983 50.1874 13.8215 50.0855C14.6713 50.0855 15.5038 49.9753 16.3536 49.9667C17.0518 49.8734 17.7583 49.9243 18.4565 49.831C19.2724 49.8395 20.0799 49.7123 20.8959 49.7208C21.695 49.6273 22.5107 49.6527 23.3098 49.5679C23.2343 49.2543 23.1753 48.9403 23.1081 48.6263C23.0492 48.4313 22.8137 48.4737 22.6623 48.4481C20.837 48.185 19.0201 47.9223 17.2032 47.6678C17.3209 47.5743 17.4807 47.6167 17.6153 47.5998C19.0285 47.4895 20.4332 47.3622 21.8464 47.2605C22.166 47.2436 22.4773 47.1842 22.7969 47.1757C22.6539 46.7347 22.5698 46.2511 22.3763 45.844C19.3567 45.3774 16.3368 44.9617 13.3254 44.4612C14.1077 44.3339 14.8984 44.2746 15.6807 44.1898L15.7479 44.1643C18.2462 43.9011 20.7529 43.6042 23.2511 43.3584C26.4221 43.3415 29.5851 43.3497 32.7563 43.3584C32.857 43.3415 33.0339 43.3922 33.0507 43.248C33.3114 41.8739 33.5638 40.4997 33.8244 39.1253C34.1861 37.2169 34.7581 35.3336 35.6413 33.5946C37.0292 30.7952 39.2247 28.42 41.8994 26.8423C44.3976 25.3662 47.2914 24.6537 50.1682 24.5179C51.1019 24.4331 52.044 24.4586 52.9693 24.5773C53.5749 24.7215 54.1974 24.8912 54.6768 25.3068C55.0722 25.6292 55.3077 26.1042 55.4843 26.5793C55.8714 27.7075 56.09 28.8782 56.275 30.0573C56.2834 30.5323 56.3676 31.0667 56.1152 31.4994C55.8797 31.9235 55.4088 32.1271 54.9629 32.2543C53.3394 32.6785 51.6403 32.2797 50.0168 32.6785C48.6795 32.9669 47.4345 33.7133 46.5848 34.7907C45.5839 36.0461 45.0539 37.6068 44.7595 39.1679C44.5325 40.5591 44.2464 41.9502 44.0193 43.3499C45.6175 43.3586 47.2242 43.3414 48.8307 43.3586C49.47 43.3586 50.1261 43.7148 50.3869 44.3254C50.7234 45.106 50.6477 45.9883 50.5383 46.811C50.4037 47.7357 50.185 48.6517 49.7728 49.5C49.4278 50.2211 48.856 50.8828 48.0737 51.1373C47.6699 51.2985 47.2325 51.2645 46.8035 51.2645C45.3902 51.2645 43.9771 51.2814 42.5641 51.2645C42.337 52.308 42.1856 53.3768 41.9837 54.4371C41.6137 56.4984 41.2519 58.5682 40.8817 60.6382C40.8733 60.7061 40.8649 60.8502 40.8649 60.9266C41.5294 60.9605 42.194 60.9266 42.8585 60.9435C47.7877 60.9435 52.7253 60.9348 57.663 60.9435C58.1929 60.9605 58.7312 60.8333 59.1939 60.5702C59.4715 60.4685 59.6397 60.2224 59.8836 60.0868C60.1192 59.951 60.1865 59.6713 60.3883 59.493C60.607 59.1028 60.8341 58.6957 60.851 58.2374C60.8762 58.2374 60.9435 58.2289 60.9771 58.2205C60.9516 42.6122 60.977 27.0036 60.9602 11.3951Z" fill="url(#paint0_linear_1422_8789)" stroke="#FCD109" stroke-width="0.094"/>
<path d="M8.85846 1.13074C9.57345 0.901704 10.3221 1.0544 11.0541 1.0035C24.7903 1.01198 38.5265 1.0035 52.2625 1.0035C53.0784 0.969567 53.7934 1.43613 54.5505 1.67365C55.1561 1.91965 55.787 2.11476 56.3926 2.37773C56.5188 2.42863 56.6113 2.53891 56.7037 2.63222C56.6953 3.75196 56.7037 4.88019 56.7037 6.00841C56.7123 6.30532 56.6616 6.6107 56.7626 6.89912C56.9394 6.92457 57.0317 7.06029 57.1497 7.17057C57.7048 7.42506 58.1757 7.84072 58.6804 8.18004C59.4375 8.72294 60.2451 9.19799 60.9852 9.75786C61.0188 9.97841 60.9936 10.2075 60.9263 10.411C60.8508 10.6486 60.9011 10.9031 60.8758 11.1406C40.9487 11.1491 21.0299 11.1406 1.11117 11.1491C1.06911 10.8691 1.14482 10.5892 1.02705 10.3262C1.01023 10.1057 0.934527 9.81724 1.14482 9.66455C1.98598 9.07074 2.87761 8.53632 3.70179 7.90859C4.21507 7.57775 4.71118 7.23844 5.20747 6.89912C5.30841 6.72946 5.27476 6.51739 5.27476 6.33076C5.27476 5.10074 5.27476 3.87072 5.28317 2.6407C5.56917 2.26745 6.06563 2.22504 6.4608 2.03841C7.26025 1.73303 8.06776 1.43613 8.85846 1.13074ZM8.90893 1.27495C7.83224 1.69061 6.74714 2.08931 5.67045 2.50497C5.52745 2.53042 5.45158 2.65767 5.37604 2.76794C5.38445 2.83581 5.39286 2.95457 5.39286 3.02243C5.38428 4.04038 5.39286 5.05833 5.38428 6.07628C5.39286 6.33076 5.35905 6.58525 5.45158 6.81429C5.34222 6.92457 5.22463 7.03485 5.08988 7.11967C3.87019 7.91707 2.69256 8.78232 1.47287 9.57124C1.26258 9.69848 1.02705 9.86814 1.09435 10.1481C1.05229 10.3008 1.12799 10.428 1.28782 10.3856C3.92907 10.3686 6.56191 10.4026 9.20333 10.3601C13.1316 10.3601 17.0514 10.3686 20.9796 10.3601L21.0385 10.3347C21.2152 10.3771 21.3916 10.3601 21.5767 10.3601C28.6929 10.3601 35.8092 10.3686 42.9337 10.3601C45.1713 10.3686 47.4172 10.3601 49.6631 10.3601C53.3642 10.3601 57.0738 10.3941 60.7749 10.3771C60.8843 10.3517 60.9179 10.2753 60.8758 10.1396C60.8673 10.0039 60.9179 9.81724 60.7749 9.73241C60.1861 9.45247 59.6814 9.01985 59.1178 8.68053C58.9161 8.51087 58.6552 8.41756 58.5038 8.18852C57.9234 7.85769 57.385 7.45051 56.8129 7.08574C56.7035 7.01788 56.6194 6.9076 56.527 6.81429C56.5775 6.63615 56.5943 6.44104 56.5943 6.25442C56.5859 5.17709 56.5943 4.09976 56.5859 3.02243C56.6111 2.85277 56.6026 2.65767 56.4512 2.54739C55.4418 2.18262 54.4409 1.79241 53.4398 1.41916C53.1286 1.26647 52.7837 1.18164 52.4472 1.13074H9.45535C9.27063 1.13923 9.09398 1.23254 8.90893 1.27495Z" fill="#F8F3B5"/>
<path d="M8.85846 1.13074C9.57344 0.901704 10.3221 1.0544 11.0541 1.0035C24.7903 1.01198 38.5265 1.0035 52.2625 1.0035C53.0784 0.969567 53.7934 1.43613 54.5505 1.67365C55.1561 1.91965 55.787 2.11476 56.3926 2.37773C56.5188 2.42863 56.6113 2.53891 56.7037 2.63222C56.6953 3.75196 56.7037 4.88019 56.7037 6.00841C56.7123 6.30532 56.6616 6.6107 56.7626 6.89912C56.9394 6.92457 57.0317 7.06029 57.1497 7.17057C57.7048 7.42506 58.1757 7.84072 58.6804 8.18004C59.4375 8.72294 60.2451 9.19799 60.9852 9.75786C61.0188 9.97841 60.9936 10.2075 60.9263 10.411C60.8508 10.6486 60.9011 10.9031 60.8758 11.1406C40.9487 11.1491 21.0299 11.1406 1.11117 11.1491C1.06911 10.8691 1.14482 10.5892 1.02705 10.3262C1.01023 10.1057 0.934527 9.81724 1.14482 9.66455C1.98598 9.07074 2.87761 8.53632 3.70179 7.90859C4.21507 7.57775 4.71118 7.23844 5.20747 6.89912C5.30841 6.72946 5.27476 6.51739 5.27476 6.33076C5.27476 5.10074 5.27476 3.87072 5.28317 2.6407C5.56917 2.26745 6.06563 2.22504 6.4608 2.03841C7.26025 1.73303 8.06776 1.43613 8.85846 1.13074M8.90893 1.27495C7.83224 1.69061 6.74714 2.08931 5.67045 2.50497C5.52745 2.53042 5.45158 2.65767 5.37604 2.76794C5.38445 2.83581 5.39286 2.95457 5.39286 3.02243C5.38428 4.04038 5.39286 5.05833 5.38428 6.07628C5.39286 6.33076 5.35905 6.58525 5.45158 6.81429C5.34222 6.92457 5.22463 7.03485 5.08988 7.11967C3.87019 7.91707 2.69256 8.78233 1.47287 9.57124C1.26258 9.69848 1.02705 9.86814 1.09435 10.1481C1.05229 10.3008 1.12799 10.428 1.28782 10.3856C3.92907 10.3686 6.56191 10.4026 9.20333 10.3601C13.1316 10.3601 17.0514 10.3686 20.9796 10.3601L21.0385 10.3347C21.2152 10.3771 21.3916 10.3601 21.5767 10.3601C28.6929 10.3601 35.8092 10.3686 42.9337 10.3601C45.1713 10.3686 47.4172 10.3601 49.6631 10.3601C53.3642 10.3601 57.0738 10.3941 60.7749 10.3771C60.8843 10.3517 60.9179 10.2753 60.8758 10.1396C60.8673 10.0039 60.9179 9.81724 60.7749 9.73241C60.1861 9.45247 59.6814 9.01985 59.1178 8.68053C58.9161 8.51087 58.6552 8.41756 58.5038 8.18852C57.9234 7.85769 57.385 7.45051 56.8129 7.08574C56.7035 7.01788 56.6194 6.9076 56.527 6.81429C56.5775 6.63615 56.5943 6.44104 56.5943 6.25442C56.5859 5.17709 56.5943 4.09976 56.5859 3.02243C56.6111 2.85277 56.6026 2.65767 56.4512 2.54739C55.4418 2.18262 54.4409 1.79241 53.4398 1.41916C53.1286 1.26647 52.7837 1.18164 52.4472 1.13074H9.45535C9.27063 1.13923 9.09398 1.23254 8.90893 1.27495V1.27495Z" stroke="#F8F3B5" stroke-width="0.094"/>
<path d="M5.39286 3.02246C6.13308 3.33633 6.92361 3.51447 7.67241 3.81985C8.07617 3.98103 8.20234 4.42214 8.37899 4.77842C8.20218 4.95656 7.99188 5.10077 7.78159 5.2365C7.00772 5.76244 6.21703 6.27141 5.45157 6.81432C5.35904 6.58528 5.39286 6.33079 5.38428 6.07631C5.39286 5.05836 5.38445 4.04041 5.39286 3.02246ZM54.3064 3.81985C55.055 3.52295 55.8373 3.31936 56.5861 3.02246C56.5945 4.09979 56.5861 5.17712 56.5945 6.25445C56.5945 6.44107 56.5777 6.63618 56.5272 6.81432C55.8711 6.35624 55.2066 5.92361 54.5505 5.47402C54.2308 5.2365 53.8775 5.05836 53.5915 4.76994C53.7682 4.41366 53.9028 3.98103 54.3064 3.81985Z" fill="#F7B402" stroke="#F7B402" stroke-width="0.094"/>
<path d="M18.2291 4.16761C19.1543 3.94705 20.189 4.77838 20.1133 5.75391C20.1217 6.71248 19.1205 7.49291 18.2038 7.27235C17.8337 7.14511 17.4803 6.95 17.2533 6.61917C16.9589 6.16957 16.8914 5.56729 17.1271 5.07528C17.2954 4.60023 17.7496 4.27788 18.2291 4.16761ZM42.2275 4.70203C42.6144 4.2694 43.2284 4.0234 43.8004 4.17609C44.2294 4.30333 44.65 4.58327 44.8351 5.00741C45.2052 5.73694 44.9192 6.72096 44.1958 7.10269C43.5563 7.45897 42.749 7.28932 42.2611 6.77186C41.7648 6.2035 41.731 5.27038 42.2275 4.70203Z" fill="#BDA727" stroke="#BDA727" stroke-width="0.094"/>
<path d="M7.78173 5.23646C7.99202 5.10073 8.20231 4.95652 8.37912 4.77838L8.43783 4.83776C8.49672 5.27887 8.45466 5.72847 8.47148 6.16958C8.44625 7.49291 8.49672 8.82473 8.43783 10.1481C5.99005 10.1481 3.54243 10.1311 1.09448 10.1481C1.02718 9.86812 1.26271 9.69847 1.473 9.57122C2.69269 8.78231 3.87032 7.91706 5.09 7.11966C5.22476 7.03483 5.34235 6.92456 5.4517 6.81428C6.21716 6.27137 7.00786 5.7624 7.78173 5.23646ZM53.5072 5.0668C53.5072 4.95652 53.5326 4.86321 53.5913 4.7699C53.8773 5.05832 54.2308 5.23646 54.5503 5.47398C55.2064 5.92357 55.8709 6.3562 56.527 6.81428C56.6195 6.90759 56.7036 7.01787 56.8129 7.08573C57.385 7.4505 57.9232 7.85768 58.5037 8.18851C58.6551 8.41755 58.9158 8.51086 59.1178 8.68052C59.6814 9.01983 60.1861 9.45246 60.7749 9.7324C60.9179 9.81723 60.8674 10.0039 60.8758 10.1396C58.4278 10.1481 55.9885 10.1311 53.5409 10.1481C53.4988 9.80874 53.524 9.46943 53.5156 9.13859C53.5158 7.78133 53.499 6.42406 53.5072 5.0668Z" fill="#F7E62D" stroke="#F7E62D" stroke-width="0.094"/>
<path d="M60.8761 10.1396C58.4281 10.1481 55.9887 10.1311 53.5411 10.1481C53.4991 9.80875 53.5243 9.46943 53.5159 9.1386C53.5159 7.78134 53.4991 6.42407 53.5073 5.06681C53.5073 4.95653 53.5327 4.86322 53.5914 4.7699C53.7682 4.41362 53.9026 3.98099 54.3064 3.81982C55.055 3.52292 55.8373 3.31933 56.5861 3.02243C56.6114 2.85277 56.603 2.65766 56.4514 2.54738C55.442 2.18262 54.4412 1.7924 53.44 1.41916C53.1288 1.26646 52.7839 1.18163 52.4474 1.13074H9.45556C9.27051 1.13922 9.09386 1.23253 8.90881 1.27495C7.83212 1.69061 6.74702 2.08931 5.67033 2.50497C5.52733 2.53042 5.45146 2.65766 5.37592 2.76794C5.38433 2.8358 5.39274 2.95456 5.39274 3.02243C6.13297 3.33629 6.92349 3.51443 7.6723 3.81982C8.07605 3.98099 8.20223 4.4221 8.37887 4.77839L8.43759 4.83777C8.49647 5.27888 8.45441 5.72847 8.47123 6.16958C8.446 7.49292 8.49647 8.82473 8.43759 10.1481C5.9898 10.1481 3.54218 10.1311 1.09423 10.1481C1.05217 10.3008 1.12788 10.428 1.2877 10.3856C3.92895 10.3686 6.56179 10.4026 9.20321 10.3601C13.1314 10.3601 17.0513 10.3686 20.9795 10.3601L21.0384 10.3347C21.215 10.3771 21.3915 10.3601 21.5766 10.3601C28.6928 10.3601 35.8091 10.3686 42.9336 10.3601C45.1712 10.3686 47.4171 10.3601 49.6629 10.3601C53.3641 10.3601 57.0737 10.3941 60.7748 10.3771C60.8845 10.3517 60.9181 10.2753 60.8761 10.1396ZM17.1271 5.07529C17.2954 4.60025 17.7494 4.2779 18.2291 4.16762C19.1543 3.94706 20.189 4.77839 20.1133 5.75392C20.1217 6.71249 19.1205 7.49292 18.2038 7.27236C17.8337 7.14512 17.4803 6.95001 17.2533 6.61918C16.9589 6.16958 16.8916 5.5673 17.1271 5.07529ZM42.2275 4.70204C42.6144 4.26941 43.2284 4.02341 43.8004 4.1761C44.2294 4.30334 44.65 4.58328 44.8351 5.00743C45.2052 5.73696 44.9192 6.72097 44.1958 7.1027C43.5563 7.45899 42.749 7.28933 42.2611 6.77187C41.7648 6.20352 41.731 5.2704 42.2275 4.70204Z" fill="url(#paint1_radial_1422_8789)" stroke="#FCD109" stroke-width="0.094"/>
<path d="M44.3715 13.8675C44.4891 13.8929 43.7585 13.1595 43.9014 13.1256C44.036 13.1425 44.5463 12.7431 45.1632 13.069C45.7799 13.3949 45.627 14.1576 45.557 14.4404C45.4738 14.777 45.2613 14.9918 45.093 15.1615C45.0005 15.2378 44.7931 15.3566 44.6669 15.3481C44.7426 14.9324 44.4987 14.8646 44.4819 14.4404L44.3715 13.8675Z" fill="url(#paint2_linear_1422_8789)" stroke="#FCD109" stroke-width="0.094"/>
<path d="M17.4818 14.3273C17.465 14.7515 17.2209 14.8193 17.2968 15.235C17.1706 15.2435 16.963 15.1247 16.8706 15.0484C16.7023 14.8787 16.4901 14.6639 16.4067 14.3273C16.3367 14.0446 16.1837 13.2819 16.8005 12.9559C17.4173 12.6299 17.9276 13.0294 18.0622 13.0125C18.2052 13.0464 17.4746 13.7798 17.5922 13.7544L17.4818 14.3273Z" fill="url(#paint3_linear_1422_8789)" stroke="#FCD109" stroke-width="0.094"/>
<path d="M43.2702 19.3016C43.3967 19.1909 43.4809 19.1909 43.6491 19.1909C42.6397 21.3964 41.4621 23.602 39.6915 25.3192C39.5021 25.4896 39.3021 25.6477 39.0927 25.7923C38.89 25.9419 38.6913 26.0822 38.4937 26.2251C38.3002 26.3606 38.1079 26.4968 37.9207 26.6389C37.4412 26.9019 37.0206 27.2668 36.4907 27.4278C35.5234 27.8944 34.4805 28.2083 33.429 28.4288C33.0169 28.4968 32.5963 28.5985 32.1757 28.607C31.6542 28.7597 31.099 28.6494 30.5691 28.6833C30.2747 28.7342 30.0138 28.5646 29.7279 28.5985C29.4798 28.5631 29.2322 28.5207 28.9862 28.4712C28.7365 28.4197 28.4885 28.3603 28.2425 28.2931C24.3865 27.08 20.6012 24.1109 19.4984 20.0956C19.4488 19.8251 19.4237 19.5507 19.4236 19.2757C19.5413 19.5132 19.6633 19.749 19.7896 19.9827C21.3583 23.4323 24.4706 26.1468 28.1475 26.9654C28.4459 27.1026 28.7689 27.0545 29.055 27.1733C29.3158 27.1733 29.5681 27.1648 29.8205 27.2496C30.6869 27.2665 31.5532 27.2581 32.4196 27.2581C32.5372 27.2666 32.6466 27.2072 32.7645 27.1818C34.2085 27.1324 35.6233 26.7352 36.9406 26.1329C37.2043 26.0125 37.4639 25.8838 37.719 25.7481C37.9423 25.6295 38.1603 25.5011 38.3724 25.3631C38.5807 25.2277 38.7832 25.0835 38.9795 24.9308C40.5368 23.6868 41.8827 22.075 42.7966 20.2216C42.9705 19.8881 43.1297 19.5792 43.2702 19.3016Z" fill="#BDA727" stroke="#BDA727" stroke-width="0.094"/>
<path d="M41.8991 26.8425C44.3973 25.3664 47.2911 24.6539 50.1679 24.5182C51.1016 24.4333 52.0437 24.4588 52.969 24.5775C53.5746 24.7217 54.1971 24.8914 54.6765 25.3071C54.4326 25.324 54.1971 25.2138 53.9531 25.1798C53.2634 25.0441 52.5484 25.095 51.8502 25.078C49.8228 25.078 47.779 25.2392 45.8191 25.7991C44.7928 26.1129 43.7666 26.4777 42.8329 27.0206C41.2179 27.9198 39.7627 29.1074 38.5851 30.5325C36.4822 32.9672 35.2456 36.0549 34.6484 39.2021C34.3624 40.8901 34.0342 42.5696 33.7736 44.2662C33.353 44.3086 32.924 44.2832 32.5034 44.2832C30.6529 44.2748 28.8023 44.2662 26.9518 44.2495C26.5564 44.2662 26.1693 44.1731 25.7741 44.1984C22.4095 44.2153 19.0448 44.1899 15.6802 44.1899L15.7475 44.1644C18.2457 43.9013 20.7524 43.6044 23.2506 43.3585C26.4217 43.3416 29.5846 43.3499 32.7558 43.3585C32.8566 43.3416 33.0334 43.3923 33.0502 43.2482C33.311 41.874 33.5633 40.4999 33.8239 39.1255C34.1858 37.2171 34.7578 35.3338 35.641 33.5948C37.0289 30.7954 39.2243 28.4202 41.8991 26.8425Z" fill="#0D69B3" stroke="#0D69B3" stroke-width="0.094"/>
<path d="M45.8192 25.799C47.7791 25.2392 49.8231 25.078 51.8503 25.078C52.5485 25.095 53.2635 25.0441 53.9532 25.1798C54.197 25.2137 54.4325 25.324 54.6766 25.307C55.072 25.6294 55.3075 26.1044 55.4841 26.5795C55.8712 27.7077 56.0898 28.8783 56.2748 30.0575C56.2832 30.5325 56.3674 31.0669 56.115 31.4996C55.8795 31.9237 55.4086 32.1273 54.9627 32.2545C53.3392 32.6787 51.6401 32.2799 50.0166 32.6787C48.6793 32.9671 47.4343 33.7135 46.5846 34.7909C45.5837 36.0463 45.0537 37.607 44.7593 39.1681C44.5323 40.5593 44.2462 41.9504 44.0191 43.3501C43.9181 43.6641 43.8593 44.0034 43.8004 44.3343C45.39 44.3598 46.98 44.3343 48.5698 44.3512C49.1752 44.3343 49.7809 44.368 50.3867 44.3256C50.7231 45.1061 50.6474 45.9884 50.5381 46.8112C50.4035 47.7358 50.1848 48.6519 49.7726 49.5002C49.4276 50.2213 48.8558 50.883 48.0735 51.1375C47.6697 51.2987 47.2323 51.2647 46.8033 51.2647C45.39 51.2647 43.9768 51.2816 42.5639 51.2647C42.3367 52.3082 42.1853 53.377 41.9835 54.4373C41.6135 56.4986 41.2517 58.5684 40.8815 60.6383C40.8731 60.7063 40.8647 60.8504 40.8647 60.9268V60.9352C37.1888 60.9352 33.5213 60.9439 29.8455 60.9352C29.854 60.9015 29.8623 60.8419 29.8707 60.808C29.8793 60.7656 29.8875 60.6723 29.896 60.6215C29.9045 60.6894 29.9128 60.8167 29.9213 60.876C30.1484 60.9015 30.5606 61.0201 30.6195 60.6894C31.1915 57.5676 31.7214 54.4289 32.3102 51.3071C32.0832 51.2563 31.8476 51.2563 31.6121 51.2987C31.5786 51.4174 31.5448 51.5361 31.5027 51.6549L31.5532 51.2731C29.2654 51.2645 26.9688 51.2731 24.6811 51.2645C24.1257 51.2478 23.5539 51.2645 22.9987 51.1967C22.0482 51.1543 21.0893 51.1882 20.1388 51.0948C18.9611 51.0948 17.7919 50.9846 16.6143 50.9846C15.689 50.8913 14.7553 50.9252 13.8216 50.8827C13.2162 50.8066 12.5935 50.8403 11.9796 50.815C10.9787 50.7046 9.96086 50.7812 8.95987 50.6707C7.90001 50.6793 6.84014 50.5858 5.78027 50.5605C5.78869 50.552 5.7971 50.5181 5.7971 50.5096C6.15039 50.5181 6.49526 50.4925 6.84855 50.4841C7.63083 50.3823 8.42153 50.4501 9.20381 50.3399C10.0197 50.3399 10.8273 50.2296 11.6432 50.2296C12.3666 50.1279 13.0984 50.1872 13.8216 50.0854C14.6714 50.0854 15.504 49.9751 16.3537 49.9667C17.0519 49.8734 17.7584 49.9243 18.4566 49.831C19.2725 49.8394 20.0801 49.7122 20.896 49.7206C21.6951 49.6271 22.5109 49.6526 23.31 49.5678C23.2344 49.254 23.1754 48.9402 23.1082 48.6262C23.0494 48.431 22.8138 48.4734 22.6624 48.4481C20.8371 48.1849 19.0202 47.922 17.2033 47.6676C17.321 47.5741 17.4809 47.6165 17.6154 47.5998C19.0286 47.4892 20.4333 47.362 21.8465 47.2605C22.1661 47.2434 22.4774 47.1841 22.797 47.1756C22.654 46.7344 22.5699 46.251 22.3764 45.8437C19.3568 45.3772 16.3369 44.9615 13.3255 44.4611C14.1078 44.3339 14.8985 44.2744 15.6808 44.1896C19.0454 44.1896 22.4101 44.2151 25.7747 44.198C26.1699 44.1727 26.557 44.266 26.9524 44.2491C28.8029 44.266 30.6535 44.2746 32.504 44.2829C32.9246 44.2829 33.3536 44.3084 33.7742 44.266C34.035 42.5694 34.363 40.8897 34.649 39.2018C35.2462 36.0545 36.4827 32.9669 38.5857 30.5323C39.7633 29.1071 41.2185 27.9195 42.8335 27.0203C43.7667 26.4777 44.7929 26.1129 45.8192 25.799Z" fill="#107BD4" stroke="#107BD4" stroke-width="0.094"/>
<path d="M44.0191 43.3501C45.6173 43.3588 47.2241 43.3416 48.8306 43.3587C49.4699 43.3587 50.126 43.7149 50.3867 44.3256C49.7811 44.368 49.1755 44.3343 48.5698 44.3512C46.98 44.3343 45.3901 44.3598 43.8004 44.3343C43.8593 44.0034 43.918 43.6641 44.0191 43.3501ZM31.612 51.2987C31.8475 51.2562 32.0832 51.2562 32.3101 51.3071C31.7213 54.4289 31.1914 57.5676 30.6194 60.6894C30.5605 61.0201 30.1483 60.9015 29.9212 60.8759C29.9127 60.8167 29.9044 60.6894 29.896 60.6215C30.4259 57.6356 30.9389 54.641 31.5026 51.6551C31.5447 51.5361 31.5783 51.4175 31.612 51.2987Z" fill="#0D69B3" stroke="#0D69B3" stroke-width="0.094"/>
<path d="M44.7547 14.105C44.6874 13.9778 44.6791 13.8251 44.6791 13.6809L44.6117 13.6894C44.5108 13.3161 44.1997 12.9598 43.7958 12.9429C43.4929 12.9174 43.1144 12.9259 42.9379 13.2143C42.6015 13.6724 42.7611 14.2577 42.7444 14.7752C42.7444 14.8091 42.7529 14.8685 42.7529 14.9024C42.7529 15.2502 42.7108 15.5895 42.6519 15.9288C42.6015 16.0306 42.5763 16.1409 42.5763 16.2597C42.4334 17.0571 42.1472 17.846 41.7605 18.567C41.6848 18.6688 41.6257 18.7791 41.6007 18.8979C41.3483 19.339 41.0455 19.7462 40.7343 20.1533C40.6837 20.1957 40.6416 20.2466 40.5996 20.2975C40.3808 20.569 40.1454 20.798 39.9013 21.0356C39.8425 21.0695 39.8005 21.1119 39.7499 21.1458C39.464 21.4258 39.1443 21.6887 38.7994 21.9008C38.7574 21.9263 38.7153 21.9602 38.6647 21.9941C36.5113 23.4277 33.8954 24.0215 31.3466 24.047C29.1849 24.1148 27.0061 23.6483 25.0546 22.7067C25.0212 22.6897 24.937 22.6558 24.9032 22.6388C24.5752 22.4607 24.2388 22.308 23.9359 22.0874C23.8686 22.0535 23.8013 22.0111 23.7256 21.9772C23.4144 21.7905 23.12 21.5869 22.8424 21.3494C22.7498 21.2646 22.6489 21.1967 22.548 21.1204C22.2451 20.8744 21.9339 20.6114 21.6733 20.3145C21.606 20.2382 21.5386 20.1703 21.4714 20.1024C20.5547 19.1439 19.8398 17.9732 19.4612 16.7008C19.0994 15.6913 19.15 14.5885 19.1079 13.5282C18.805 13.0616 18.1658 12.7987 17.6611 13.0871C17.4508 13.2398 17.4256 13.5197 17.2658 13.7148C17.005 16.5142 18.1911 19.305 20.0837 21.324C20.0837 21.3918 20.1173 21.4342 20.1764 21.4597C20.5128 21.7736 20.8407 22.0959 21.1772 22.4013C21.2361 22.4607 21.3034 22.5201 21.3791 22.571C21.7155 22.8509 22.0772 23.1054 22.4305 23.3684C22.4978 23.4193 22.5651 23.4617 22.6408 23.5041C23.1035 23.7755 23.5407 24.0979 24.0372 24.2845C24.0708 24.31 24.1297 24.3524 24.1633 24.3693C25.7615 25.1413 27.4859 25.6672 29.2524 25.8369C29.4458 25.8369 29.6393 25.8538 29.8328 25.8963C30.6739 25.9472 31.5151 25.9217 32.3563 25.9047C34.9553 25.6757 37.6388 25.0395 39.809 23.4956L39.8342 23.5295C39.9015 23.4701 39.9604 23.4193 40.0277 23.3684C40.3727 23.1139 40.7092 22.8424 41.0457 22.5625C41.1212 22.5031 41.2053 22.4352 41.2812 22.3589C41.6512 21.9517 42.0803 21.5785 42.3915 21.1119L42.442 21.1373C42.4672 21.0949 42.5093 21.0101 42.5347 20.9677C42.8205 20.5775 43.0814 20.1703 43.3338 19.7631C43.3504 19.7377 43.3925 19.6953 43.4093 19.6698L43.3758 19.6359C43.4011 19.6019 43.46 19.5341 43.4852 19.5001C43.9478 18.5501 44.3598 17.5576 44.503 16.5057C44.5619 16.4802 44.5956 16.4293 44.5956 16.37C44.6041 16.0306 44.7218 15.7083 44.6882 15.369C44.763 14.9533 44.7715 14.5292 44.7547 14.105Z" fill="white" stroke="white" stroke-width="0.094"/>
<defs>
<linearGradient id="paint0_linear_1422_8789" x1="30.9937" y1="11.1405" x2="30.9937" y2="61" gradientUnits="userSpaceOnUse">
<stop stop-color="#F7E830"/>
<stop offset="1" stop-color="#FDCB06"/>
</linearGradient>
<radialGradient id="paint1_radial_1422_8789" cx="0" cy="0" r="1" gradientUnits="userSpaceOnUse" gradientTransform="translate(30.7359 33.8814) scale(40.2143 40.5551)">
<stop offset="0.596" stop-color="#F29405"/>
<stop offset="0.736" stop-color="#F7D01E"/>
<stop offset="1" stop-color="#FDCB06"/>
</radialGradient>
<linearGradient id="paint2_linear_1422_8789" x1="44.7509" y1="12.94" x2="44.7652" y2="15.301" gradientUnits="userSpaceOnUse">
<stop stop-color="#FADA1C"/>
<stop offset="1" stop-color="#FDCB06"/>
</linearGradient>
<linearGradient id="paint3_linear_1422_8789" x1="17.2126" y1="12.8269" x2="17.1983" y2="15.1879" gradientUnits="userSpaceOnUse">
<stop stop-color="#FADA1C"/>
<stop offset="1" stop-color="#FDCB06"/>
</linearGradient>
</defs>
</svg>
