<svg width="60" height="60" viewBox="0 0 60 60" fill="none" xmlns="http://www.w3.org/2000/svg">
<rect width="60" height="60" rx="15" fill="#F3F3F3"/>
<path d="M47.4816 30.3598C47.4816 29.181 47.3771 28.0618 47.198 26.9725H30.3357V33.7025H39.9905C39.5578 35.911 38.2893 37.7763 36.4091 39.0446V43.5214H42.1692C45.5417 40.4026 47.4816 35.8065 47.4816 30.3598Z" fill="#4285F4"/>
<path d="M30.3356 47.8638C35.1705 47.8638 39.2144 46.2522 42.1692 43.5214L36.4091 39.0446C34.7975 40.119 32.7531 40.7756 30.3356 40.7756C25.6649 40.7756 21.7105 37.627 20.2929 33.3741H14.3538V37.9851C17.2935 43.8347 23.3371 47.8638 30.3356 47.8638Z" fill="#34A853"/>
<path d="M20.2928 33.3741C19.9198 32.2997 19.7258 31.1507 19.7258 29.9569C19.7258 28.7632 19.9347 27.6141 20.2928 26.5397V21.9286H14.3537C13.1301 24.3461 12.4287 27.062 12.4287 29.9569C12.4287 32.8519 13.1301 35.5678 14.3537 37.9851L20.2928 33.3741Z" fill="#FBBC05"/>
<path d="M30.3356 19.1381C32.9769 19.1381 35.3346 20.0484 37.1999 21.8242L42.3034 16.7208C39.2144 13.8258 35.1705 12.05 30.3356 12.05C23.3371 12.05 17.2935 16.0791 14.3538 21.9286L20.2929 26.5397C21.7105 22.2868 25.6649 19.1381 30.3356 19.1381Z" fill="#EA4335"/>
</svg>
