<svg width="612" height="612" viewBox="0 0 612 612" fill="none" xmlns="http://www.w3.org/2000/svg">
<rect x="0.214844" y="0.0603333" width="611" height="611" rx="60" fill="url(#paint0_linear_111_526)"/>
<path d="M305.715 157.328C353.848 157.328 359.811 157.328 378.979 158.18C396.443 159.032 406.24 162.013 412.63 164.569C421.149 167.977 427.112 171.81 433.501 178.2C439.891 184.589 443.724 190.552 447.132 199.071C449.688 205.461 452.669 214.832 453.521 232.722C454.373 251.89 454.373 257.427 454.373 305.986C454.373 354.545 454.373 360.083 453.521 379.251C452.669 396.715 449.688 406.512 447.132 412.901C443.724 421.42 439.891 427.384 433.501 433.773C427.112 440.162 421.149 443.996 412.63 447.404C406.24 449.959 396.869 452.941 378.979 453.793C359.811 454.645 354.274 454.645 305.715 454.645C257.582 454.645 251.618 454.645 232.45 453.793C214.986 452.941 205.189 449.959 198.8 447.404C190.281 443.996 184.317 440.162 177.928 433.773C171.539 427.384 167.705 421.42 164.297 412.901C161.742 406.512 158.76 397.141 157.908 379.251C157.056 360.083 157.056 354.545 157.056 305.986C157.056 257.427 157.056 251.89 157.908 232.722C158.76 215.258 161.742 205.461 164.297 199.071C167.705 190.552 171.539 184.589 177.928 178.2C184.317 171.81 190.281 167.977 198.8 164.569C205.189 162.013 214.56 159.032 232.45 158.18C251.618 157.328 257.582 157.328 305.715 157.328ZM305.715 124.529C256.73 124.529 250.34 124.529 231.172 125.807C212.004 126.659 198.8 129.641 187.299 134.326C175.372 139.012 165.149 144.975 155.352 155.198C145.129 165.421 139.166 175.218 134.481 187.145C129.795 198.645 126.813 211.85 125.961 231.018C124.684 250.186 124.684 256.575 124.684 305.56C124.684 354.545 124.684 360.935 125.961 380.103C126.813 399.271 129.795 412.475 134.481 423.976C139.166 435.903 145.129 446.126 155.352 455.923C165.575 466.146 175.372 472.109 187.299 476.794C198.8 481.48 212.004 484.462 231.172 485.314C250.34 486.591 256.73 486.591 305.715 486.591C354.7 486.591 361.089 486.591 380.257 485.314C399.425 484.462 412.63 481.48 424.13 476.794C436.057 472.109 446.28 466.146 456.077 455.923C466.3 445.7 472.263 435.903 476.949 423.976C481.634 412.475 484.616 399.271 485.468 380.103C486.746 360.935 486.746 354.545 486.746 305.56C486.746 256.575 486.746 250.186 485.468 231.018C484.616 211.85 481.634 198.645 476.949 187.145C472.263 175.218 466.3 164.995 456.077 155.198C445.854 144.975 436.057 139.012 424.13 134.326C412.63 129.641 399.425 126.659 380.257 125.807C361.089 124.529 354.7 124.529 305.715 124.529Z" fill="white"/>
<path d="M305.715 212.702C254.174 212.702 212.856 254.446 212.856 305.56C212.856 356.675 254.6 398.419 305.715 398.419C357.255 398.419 398.573 356.675 398.573 305.56C398.573 254.446 357.255 212.702 305.715 212.702ZM305.715 366.046C272.49 366.046 245.229 339.211 245.229 305.56C245.229 271.91 272.064 245.075 305.715 245.075C339.365 245.075 366.2 271.91 366.2 305.56C366.2 339.211 338.939 366.046 305.715 366.046Z" fill="white"/>
<path d="M402.407 230.592C414.404 230.592 424.13 220.866 424.13 208.868C424.13 196.871 414.404 187.145 402.407 187.145C390.409 187.145 380.683 196.871 380.683 208.868C380.683 220.866 390.409 230.592 402.407 230.592Z" fill="white"/>
<defs>
<linearGradient id="paint0_linear_111_526" x1="305.715" y1="0.0603333" x2="305.715" y2="611.06" gradientUnits="userSpaceOnUse">
<stop stop-color="#4E56D3"/>
<stop offset="0.354167" stop-color="#B21697"/>
<stop offset="0.677083" stop-color="#E73874"/>
<stop offset="1" stop-color="#FDCA6E"/>
</linearGradient>
</defs>
</svg>
