<svg width="21" height="16" viewBox="0 0 21 16" fill="none" xmlns="http://www.w3.org/2000/svg">
<path d="M4.3715 0.457031H20.8286V11.4285H4.3715V0.457031ZM12.6001 3.19989C13.3275 3.19989 14.0252 3.48887 14.5396 4.00325C15.0539 4.51764 15.3429 5.21529 15.3429 5.94275C15.3429 6.6702 15.0539 7.36785 14.5396 7.88224C14.0252 8.39663 13.3275 8.6856 12.6001 8.6856C11.8726 8.6856 11.175 8.39663 10.6606 7.88224C10.1462 7.36785 9.85721 6.6702 9.85721 5.94275C9.85721 5.21529 10.1462 4.51764 10.6606 4.00325C11.175 3.48887 11.8726 3.19989 12.6001 3.19989ZM8.02864 2.2856C8.02864 2.77057 7.83599 3.23567 7.49306 3.5786C7.15014 3.92152 6.68504 4.11417 6.20007 4.11417V7.77132C6.68504 7.77132 7.15014 7.96397 7.49306 8.30689C7.83599 8.64982 8.02864 9.11492 8.02864 9.59989H17.1715C17.1715 9.11492 17.3642 8.64982 17.7071 8.30689C18.05 7.96397 18.5151 7.77132 19.0001 7.77132V4.11417C18.5151 4.11417 18.05 3.92152 17.7071 3.5786C17.3642 3.23567 17.1715 2.77057 17.1715 2.2856H8.02864ZM0.714355 4.11417H2.54293V13.257H17.1715V15.0856H0.714355V4.11417Z" fill="#525154"/>
</svg>
