<svg width="35" height="24" viewBox="0 0 35 24" fill="none" xmlns="http://www.w3.org/2000/svg">
<path d="M7.33758 2.14427C8.02611 1.31805 8.77365 0.4328 9.83595 0.0983733C11.0261 -0.216381 12.0392 0.718045 12.7868 1.51477C14.7441 3.75739 16.1704 6.40329 17.4982 9.05903C18.2163 7.44591 19.1114 5.91149 20.0359 4.41641C20.9212 3.05903 21.8359 1.68198 23.1146 0.649193C23.7048 0.196734 24.5212 -0.236053 25.2589 0.147554C26.3015 0.698373 27.0884 1.61313 27.8261 2.50821C29.39 4.5246 30.6196 6.77706 31.731 9.06887C33.1179 12.0197 34.3179 15.0984 34.8196 18.3344C34.9671 19.8295 35.1048 21.5115 34.1999 22.8197C33.5015 23.8426 32.1737 24.1967 30.9933 23.9902C29.9704 23.6262 29.0753 22.9574 28.4064 22.1115C26.813 20.1443 25.8687 17.7639 24.9933 15.4131C24.8655 15 24.7081 14.5967 24.5704 14.1935C24.4818 14.6066 24.3638 15.0197 24.2261 15.423C23.331 17.8033 22.3769 20.2328 20.7343 22.2099C20.0753 23.0164 19.2097 23.6361 18.2261 23.9902C16.8097 24.2853 15.4425 23.5476 14.5277 22.5049C12.7376 20.5574 11.7441 18.0394 10.8294 15.5902C10.6523 15.0885 10.4753 14.5869 10.3474 14.0656C10.1999 14.5869 10.0228 15.1082 9.83595 15.6098C9.00972 17.8623 8.06545 20.1344 6.57037 22.0328C5.75398 23.0066 4.69168 23.9607 3.36381 24.0295C2.13431 24.1377 0.944141 23.341 0.47201 22.2197C-0.196842 20.6656 -0.000120962 18.9148 0.294961 17.2918C0.934305 14.1935 2.11463 11.2328 3.51135 8.40985C4.58349 6.21641 5.80316 4.07214 7.33758 2.14427ZM8.03594 2.8328C6.52119 4.76067 5.31136 6.9246 4.22939 9.11805C2.88185 11.9607 1.66217 14.9213 1.14086 18.0394C0.953978 18.9049 0.953978 19.8 1.0425 20.6754C1.1507 21.5017 1.47529 22.3869 2.23267 22.8098C2.96054 23.2328 3.89496 23.0656 4.55398 22.5935C5.73431 21.7672 6.52119 20.5082 7.19988 19.259C8.65562 16.4754 9.60972 13.4558 10.3277 10.4164C11.095 13.5344 12.0589 16.6426 13.5933 19.4853C14.2032 20.5377 14.8425 21.6295 15.8359 22.3574C16.3376 22.8099 16.9966 23.1246 17.6851 23.0459C18.4523 22.9672 19.0917 22.4754 19.6327 21.9541C20.5474 21.0098 21.2163 19.8492 21.8064 18.6885C23.0655 16.1115 23.931 13.3574 24.6097 10.5836C25.4556 13.9476 26.5081 17.3213 28.3179 20.3115C28.9966 21.3541 29.7933 22.4361 30.9835 22.9279C31.8196 23.2721 32.8819 22.9672 33.3638 22.1902C33.9441 21.2558 33.9933 20.0951 33.9048 19.0328C33.7868 17.3115 33.2851 15.6394 32.7343 14.0066C31.6327 10.859 30.1868 7.82952 28.4261 5.00657C27.6097 3.74755 26.7638 2.4787 25.6228 1.47542C25.2196 1.12132 24.6196 0.777062 24.1081 1.13116C23.1245 1.73116 22.4458 2.68526 21.7573 3.59018C20.0851 5.9705 18.7081 8.56723 17.5769 11.2426C17.5474 11.282 17.4687 11.3607 17.4392 11.4C17.3409 11.0951 17.2425 10.8 17.1146 10.5049C15.954 7.99673 14.6655 5.52788 13.0228 3.30493C12.4622 2.56723 11.8818 1.81968 11.1245 1.2787C10.7999 1.05247 10.3671 0.845914 9.98349 1.04264C9.16709 1.41641 8.5966 2.15411 8.03594 2.8328Z" fill="#FEFEFE"/>
<path d="M8.03588 2.83278C8.59654 2.15409 9.17686 1.42622 9.99326 1.05245C10.3769 0.855728 10.8097 1.05245 11.1342 1.28851C11.8916 1.8295 12.4719 2.58688 13.0326 3.31474C14.6654 5.54753 15.9638 8.00655 17.1244 10.5147C17.2621 10.8 17.3605 11.1049 17.449 11.4098C15.9342 8.84261 14.5572 6.17704 12.6687 3.85573C12.1178 3.20655 11.5375 2.51802 10.7408 2.17376C10.2883 1.97704 9.82605 2.23278 9.45227 2.47868C8.0949 3.61966 7.09162 5.10491 6.14736 6.58032C3.92441 10.1213 2.25227 14.0065 1.15063 18.0393C1.67195 14.9213 2.88178 11.9606 4.23916 9.11802C5.31129 6.92458 6.52113 4.76065 8.03588 2.83278Z" fill="#9E242E"/>
<path d="M24.1081 1.12133C24.6195 0.767231 25.2195 1.11149 25.6228 1.46559C26.7638 2.45903 27.6097 3.72789 28.4261 4.99674C30.1867 7.82953 31.6425 10.8492 32.7343 13.9967C33.2851 15.6295 33.7867 17.2918 33.9048 19.023C33.7179 17.823 33.4031 16.6426 32.9999 15.5017C31.9572 12.364 30.5113 9.35412 28.7605 6.55084C27.9933 5.35084 27.1769 4.16067 26.1933 3.13772C25.7999 2.74428 25.3769 2.33117 24.8359 2.15412C24.413 2.02625 24.0294 2.32133 23.6851 2.52789C22.7703 3.24592 22.0622 4.17051 21.3835 5.10494C20.1835 6.80658 19.1113 8.59674 18.1474 10.4361C17.99 10.7312 17.7933 11.0066 17.5769 11.2525C18.7081 8.56723 20.0851 5.98035 21.7572 3.60002C22.4458 2.68526 23.1343 1.72133 24.1081 1.12133Z" fill="#9E242E"/>
<path d="M9.45242 2.47867C9.82619 2.23277 10.2885 1.97703 10.7409 2.17375C11.5377 2.51801 12.118 3.20654 12.6688 3.85572C14.5573 6.17703 15.9344 8.8426 17.4393 11.4098C16.495 14.0951 15.3737 16.7901 15.3049 19.6721C15.2557 20.5967 15.5016 21.5016 15.8459 22.3574C14.8524 21.6295 14.2032 20.5377 13.6032 19.4852C12.0786 16.6426 11.1049 13.5442 10.3377 10.4164C9.78684 7.81965 9.27537 5.16391 9.45242 2.47867Z" fill="#FF912E"/>
<path d="M23.695 2.51805C24.0393 2.31149 24.4229 2.01641 24.8459 2.14428C25.3868 2.32133 25.8098 2.73444 26.2032 3.12789C27.1868 4.16067 28.0032 5.341 28.7704 6.541C30.5213 9.34428 31.9672 12.3541 33.0098 15.4918C33.4229 16.6328 33.7278 17.8131 33.9147 19.0131C34.0032 20.0754 33.9541 21.2361 33.3737 22.1705C32.8918 22.9574 31.8393 23.2525 30.9934 22.9082C29.8032 22.4262 29.0065 21.3344 28.3278 20.2918C26.518 17.3115 25.4655 13.9377 24.6196 10.564C24.0491 7.93772 23.518 5.24264 23.695 2.51805Z" fill="#F41CB2"/>
<path d="M6.14743 6.58034C7.09169 5.10493 8.09497 3.61968 9.45235 2.4787C9.2753 5.15411 9.78677 7.81968 10.3474 10.4164C9.6294 13.4656 8.66546 16.4754 7.21956 19.259C6.54087 20.5082 5.75399 21.7672 4.57366 22.5935C3.91464 23.0656 2.98022 23.2328 2.25235 22.8098C1.49497 22.3869 1.17038 21.4918 1.06218 20.6754C0.963823 19.8 0.973659 18.9049 1.16054 18.0394C2.24251 14.0066 3.92448 10.1213 6.14743 6.58034Z" fill="#F41CB2"/>
<path d="M21.3933 5.09505C22.072 4.16063 22.7802 3.23604 23.6949 2.51801C23.5179 5.23276 24.049 7.93768 24.6294 10.5737C23.9507 13.3574 23.0753 16.1016 21.8261 18.6787C21.2359 19.8492 20.5671 21 19.6523 21.9442C19.1212 22.4655 18.472 22.9573 17.7048 23.036C17.0163 23.1147 16.3572 22.8 15.8556 22.3475C15.5113 21.4918 15.2654 20.5869 15.3146 19.6623C15.3835 16.7803 16.5048 14.0754 17.449 11.4C17.4786 11.3606 17.5572 11.2819 17.5867 11.2426C17.8031 10.9869 17.9999 10.7213 18.1572 10.4262C19.131 8.58686 20.1933 6.79669 21.3933 5.09505Z" fill="#F25511"/>
</svg>
