<svg width="35" height="42" viewBox="0 0 35 42" fill="none" xmlns="http://www.w3.org/2000/svg">
<path d="M15.8474 20.679C15.8474 20.7894 15.9369 20.879 16.0474 20.879H17.1084C17.4897 20.879 17.7714 20.7707 17.9534 20.554C18.144 20.3373 18.2394 20.0557 18.2394 19.709C18.2394 19.3363 18.1527 19.0417 17.9794 18.825C17.806 18.6083 17.5374 18.5 17.1734 18.5H16.0474C15.9369 18.5 15.8474 18.5895 15.8474 18.7V20.679Z" fill="url(#paint0_linear_2689_10591)"/>
<path fill-rule="evenodd" clip-rule="evenodd" d="M17.9874 0.196759L33.859 9.63897C34.0675 9.76303 34.2402 9.93917 34.3602 10.1501C34.4801 10.3611 34.5432 10.5995 34.5431 10.8422V16.2322C34.5431 27.6172 27.9592 37.9636 17.7771 41.9056C17.4519 42.0315 17.0914 42.0315 16.7661 41.9056C6.55922 37.9538 0 27.5849 0 16.2322V10.8422C1.90735e-05 10.5996 0.0630946 10.3611 0.183043 10.1501C0.302991 9.9392 0.475695 9.76305 0.684223 9.63897L16.5559 0.196759C16.7724 0.0679748 17.0197 0 17.2716 0C17.5236 0 17.7709 0.0679748 17.9874 0.196759ZM7.02117 25C6.93834 25 6.86409 24.9489 6.83443 24.8716L3.77685 16.8996C3.72661 16.7686 3.82331 16.628 3.96358 16.628H6.07905C6.16391 16.628 6.23952 16.6815 6.2677 16.7616L7.98202 21.6302C8.04473 21.8083 8.2966 21.8083 8.35932 21.6302L10.0736 16.7616C10.1018 16.6815 10.1774 16.628 10.2623 16.628H12.3908C12.531 16.628 12.6277 16.7686 12.5775 16.8996L9.51991 24.8716C9.49025 24.9489 9.41599 25 9.33317 25H7.02117ZM13.6034 25C13.4929 25 13.4034 24.9104 13.4034 24.8V16.828C13.4034 16.7175 13.4929 16.628 13.6034 16.628H17.7194C18.404 16.628 18.9674 16.7667 19.4094 17.044C19.86 17.3127 20.1937 17.681 20.4104 18.149C20.627 18.617 20.7354 19.137 20.7354 19.709C20.7354 20.2983 20.6097 20.8227 20.3584 21.282C20.107 21.7413 19.7517 22.101 19.2924 22.361C18.833 22.621 18.2914 22.751 17.6674 22.751H16.0474C15.9369 22.751 15.8474 22.8405 15.8474 22.951V24.8C15.8474 24.9104 15.7578 25 15.6474 25H13.6034ZM21.3887 24.8C21.3887 24.9104 21.4783 25 21.5887 25H23.6327C23.7432 25 23.8327 24.9104 23.8327 24.8V21.2059C23.8327 21.0111 24.0827 20.9313 24.1957 21.0899L26.9189 24.916C26.9564 24.9687 27.0172 25 27.0819 25H28.8717C28.9822 25 29.0717 24.9104 29.0717 24.8V16.828C29.0717 16.7175 28.9822 16.628 28.8717 16.628H26.8277C26.7173 16.628 26.6277 16.7175 26.6277 16.828V20.4357C26.6277 20.6304 26.3778 20.7103 26.2648 20.5518L23.5285 16.7119C23.491 16.6593 23.4303 16.628 23.3657 16.628H21.5887C21.4783 16.628 21.3887 16.7175 21.3887 16.828V24.8Z" fill="url(#paint1_linear_2689_10591)"/>
<defs>
<linearGradient id="paint0_linear_2689_10591" x1="1.20354" y1="22.4979" x2="34.5431" y2="22.4979" gradientUnits="userSpaceOnUse">
<stop stop-color="#E72D66"/>
<stop offset="1" stop-color="#FFEC00"/>
</linearGradient>
<linearGradient id="paint1_linear_2689_10591" x1="1.20354" y1="22.4979" x2="34.5431" y2="22.4979" gradientUnits="userSpaceOnUse">
<stop stop-color="#E72D66"/>
<stop offset="1" stop-color="#FFEC00"/>
</linearGradient>
</defs>
</svg>
