<svg
    xmlns="http://www.w3.org/2000/svg"
    viewBox="0 0 612 612"
    id="vector">
    <path
        id="path"
        d="M 60.56 0.06 L 551.56 0.06 C 562.091 0.06 572.44 2.833 581.56 8.098 C 590.68 13.364 598.256 20.94 603.522 30.06 C 608.787 39.18 611.56 49.529 611.56 60.06 L 611.56 551.06 C 611.56 566.967 605.234 582.239 593.986 593.486 C 582.739 604.734 567.467 611.06 551.56 611.06 L 60.56 611.06 C 44.653 611.06 29.381 604.734 18.134 593.486 C 6.886 582.239 0.56 566.967 0.56 551.06 L 0.56 60.06 C 0.56 44.153 6.886 28.881 18.134 17.634 C 29.381 6.386 44.653 0.06 60.56 0.06 Z"
        fill="#da0000"/>
    <path
        id="path_1"
        d="M 476.25 219.48 C 472.3 204.08 460.06 192.23 444.66 187.89 C 417.02 180.78 306.06 180.78 306.06 180.78 C 306.06 180.78 195.1 180.78 167.06 188.28 C 151.66 192.23 139.81 204.47 135.47 219.87 C 127.97 247.51 127.97 305.56 127.97 305.56 C 127.97 305.56 127.97 363.21 135.47 391.25 C 139.42 406.65 151.66 418.49 167.06 422.84 C 194.7 430.34 306.06 430.34 306.06 430.34 C 306.06 430.34 417.02 430.34 445.05 422.84 C 460.45 418.89 472.3 406.65 476.64 391.25 C 484.15 363.61 484.15 305.56 484.15 305.56 C 484.15 305.56 483.75 247.51 476.25 219.48 Z M 270.52 358.47 L 270.52 251.86 L 362.92 305.17 L 270.52 358.47 Z"
        fill="#ffffff"/>
</svg>
